<svg width="79" height="44" viewBox="0 0 79 44" fill="none" xmlns="http://www.w3.org/2000/svg">
<g clip-path="url(#clip0_56_160)">
<path d="M4.32321 31.7918L7.36807 6.87818H0.0371094L0.872638 0.000152588H22.5241L21.6885 6.87414H14.7191L11.6743 31.7878H4.32321V31.7918Z" fill="white"/>
<path d="M28.8994 31.7917L31.9442 6.87803H24.6133L25.4448 0H47.0962L46.2607 6.87399H39.2913L36.2464 31.7877H28.8954L28.8994 31.7917Z" fill="white"/>
<path d="M50.0205 1.03325e-05H66.1245C68.4704 -0.0282777 70.2981 0.662758 71.6036 2.07716C72.9131 3.49156 73.3992 5.45152 73.0698 7.95299C72.7404 10.4585 71.7924 12.471 70.2298 13.9985L67.0484 17.288C66.49 17.9387 66.3333 18.6782 66.5744 19.5107L71.8968 31.7877L63.2363 31.7432L58.7493 20.4644C58.1789 18.7833 58.3878 17.3244 59.38 16.0838L65.6946 9.25423C66.3253 8.64806 66.5262 8.04997 66.2932 7.45188C66.0602 6.85379 65.5541 6.57091 64.7707 6.5992H56.311L53.2421 31.7877H46.1602L50.0205 1.03325e-05Z" fill="white"/>
<path d="M0 34.8307H4.76412V36.1036H3.06093V43.9192H1.71926V36.1036H0V34.8307Z" fill="white"/>
<path d="M9.46089 43.9192L8.0429 39.9831H7.3319V43.9192H5.99023V34.8307H8.37631C9.70593 34.8307 10.6861 35.8692 10.6861 37.219V37.5827C10.6861 38.9203 9.84652 39.5184 9.38055 39.7366C9.83045 41.0338 10.425 42.6705 10.8668 43.9192H9.46089ZM7.3319 38.698H8.37631C8.93065 38.698 9.3444 38.2454 9.3444 37.6837V37.1139C9.3444 36.5562 8.93065 36.0996 8.37631 36.0996H7.3319V38.698Z" fill="white"/>
<path d="M13.6933 40.5327L11.6406 34.8307H13.0466L14.336 38.9486H14.4003L15.6897 34.8307H17.0957L15.043 40.5327V43.9232H13.6893V40.5327H13.6933Z" fill="white"/>
<path d="M20.1367 34.8307H24.9008V36.1036H23.1976V43.9192H21.856V36.1036H20.1407V34.8307H20.1367Z" fill="white"/>
<path d="M29.4809 43.9192V40.856H27.4042V43.9192H26.0625V37.1664C26.0625 35.8409 27.1069 34.7498 28.4486 34.7498C29.7902 34.7498 30.8226 35.8409 30.8226 37.1664V43.9192H29.4809ZM27.4042 39.5547H29.4809V37.0492C29.4809 36.5037 29.0029 36.0511 28.4486 36.0511C27.8942 36.0511 27.4042 36.5037 27.4042 37.0492V39.5547Z" fill="white"/>
<path d="M34.8116 39.5588H37.266V41.5955C37.266 42.9331 36.1814 43.996 34.8919 43.996C33.6025 43.996 32.5059 42.9331 32.5059 41.5955V37.1664C32.5059 35.8409 33.5623 34.7498 34.8919 34.7498C36.2216 34.7498 37.2419 35.8409 37.2419 37.1664V37.712H35.9363V37.0492C35.9363 36.5037 35.4463 36.0511 34.8919 36.0511C34.3376 36.0511 33.8475 36.5037 33.8475 37.0492V41.6844C33.8475 42.2542 34.3255 42.6988 34.8919 42.6988C35.4583 42.6988 35.9243 42.2583 35.9243 41.6844V40.8277H34.8156V39.5547L34.8116 39.5588Z" fill="white"/>
<path d="M44.998 43.9192L43.58 39.9831H42.869V43.9192H41.5273V34.8307H43.9134C45.243 34.8307 46.2232 35.8692 46.2232 37.219V37.5827C46.2232 38.9203 45.3836 39.5184 44.9177 39.7366C45.3676 41.0338 45.9621 42.6705 46.4039 43.9192H44.998ZM42.869 38.698H43.9134C44.4678 38.698 44.8815 38.2454 44.8815 37.6837V37.1139C44.8815 36.5562 44.4678 36.0996 43.9134 36.0996H42.869V38.698Z" fill="white"/>
<path d="M49.2323 41.6602C49.2323 42.2462 49.7103 42.6988 50.2767 42.6988C50.8431 42.6988 51.3091 42.2462 51.3091 41.6602V34.8307H52.6507V41.5834C52.6507 42.9089 51.5661 44 50.2767 44C48.9873 44 47.8906 42.9089 47.8906 41.5834V34.8307H49.2323V41.6602Z" fill="white"/>
<path d="M56.6397 39.5588H59.0941V41.5955C59.0941 42.9331 58.0095 43.996 56.7201 43.996C55.4306 43.996 54.334 42.9331 54.334 41.5955V37.1664C54.334 35.8409 55.3945 34.7498 56.7201 34.7498C58.0457 34.7498 59.07 35.8409 59.07 37.1664V37.712H57.7645V37.0492C57.7645 36.5037 57.2744 36.0511 56.7201 36.0511C56.1657 36.0511 55.6757 36.5037 55.6757 37.0492V41.6844C55.6757 42.2542 56.1537 42.6988 56.7201 42.6988C57.2865 42.6988 57.7524 42.2583 57.7524 41.6844V40.8277H56.6437V39.5547L56.6397 39.5588Z" fill="white"/>
<path d="M64.7584 39.3487C65.2364 39.777 65.5336 40.3994 65.5336 41.1025V41.5955C65.5336 42.9332 64.5013 43.9192 63.1717 43.9192H60.7695V34.8307H63.1717C64.5013 34.8307 65.4694 35.845 65.4694 37.1664V37.5827C65.4694 38.2858 65.2243 38.9082 64.7584 39.3487ZM62.1112 38.698H63.1436C63.7381 38.698 64.1237 38.2454 64.1237 37.6837V37.126C64.1237 36.5684 63.7381 36.0996 63.1436 36.0996H62.1112V38.698ZM63.1436 39.9831H62.1112V42.6301H63.1436C63.7381 42.6301 64.188 42.1896 64.188 41.6036V40.9934C64.188 40.46 63.7622 39.9791 63.1436 39.9791V39.9831Z" fill="white"/>
<path d="M68.4902 40.5327L66.4375 34.8307H67.8434L69.1329 38.9486H69.1972L70.4866 34.8307H71.8925L69.8399 40.5327V43.9232H68.4862V40.5327H68.4902Z" fill="white"/>
<path d="M78.6927 2.82881C78.6927 3.50772 78.5159 4.04519 78.1624 4.44122C77.8089 4.83726 77.2104 5.03527 76.3668 5.03527C75.5233 5.03527 74.9247 4.83726 74.5713 4.44122C74.2178 4.04519 74.041 3.50772 74.041 2.82881V2.41661C74.041 1.7377 74.2178 1.20022 74.5713 0.804193C74.9247 0.40816 75.5233 0.210144 76.3668 0.210144C77.2104 0.210144 77.8089 0.40816 78.1624 0.804193C78.5159 1.20022 78.6927 1.7377 78.6927 2.41661V2.82881ZM78.0781 2.29538C78.0781 1.78619 77.9495 1.40632 77.6884 1.15577C77.4273 0.905221 76.9895 0.779946 76.3708 0.779946C75.7522 0.779946 75.3144 0.909262 75.0533 1.1679C74.7922 1.42653 74.6636 1.8064 74.6636 2.3075V2.93792C74.6636 3.43902 74.7922 3.81889 75.0533 4.07752C75.3144 4.33615 75.7522 4.46547 76.3708 4.46547C76.9895 4.46547 77.4273 4.33615 77.6884 4.07752C77.9495 3.81889 78.0781 3.43902 78.0781 2.93792V2.29538ZM75.4911 4.0169V1.19214C75.6518 1.18406 75.8125 1.18002 75.9772 1.17194C76.1419 1.17194 76.2744 1.1679 76.3789 1.1679C76.7886 1.1679 77.0738 1.24468 77.2345 1.40228C77.3952 1.55989 77.4755 1.76194 77.4755 2.0125V2.14585C77.4755 2.31558 77.4273 2.4651 77.3269 2.59846C77.2265 2.73182 77.0939 2.83285 76.9252 2.90559L77.5759 4.00882H76.9734L76.395 2.99045H76.0093V4.00882H75.4911V4.0169ZM76.4191 1.65687C76.3789 1.65687 76.3106 1.65687 76.2222 1.66496C76.1298 1.669 76.0615 1.67708 76.0133 1.68112V2.50552C76.1017 2.5136 76.1821 2.51764 76.2544 2.51764H76.4472C76.632 2.51764 76.7605 2.48531 76.8368 2.41661C76.9131 2.34791 76.9493 2.25901 76.9493 2.14585V2.03674C76.9493 1.90743 76.9091 1.81448 76.8288 1.75386C76.7484 1.69324 76.6119 1.66496 76.4191 1.66496V1.65687Z" fill="white"/>
</g>
<defs>
<clipPath id="clip0_56_160">
<rect width="78.6923" height="44" fill="white"/>
</clipPath>
</defs>
</svg>
